<svg width="30" height="30" viewBox="0 0 30 30" fill="none" xmlns="http://www.w3.org/2000/svg"><path d="M12.1406 0.029335C13.3058 0.223455 14.096 1.32793 13.9018 2.49265L13.2455 6.4286H19.6138L20.3839 1.7898C20.5781 0.625082 21.683 -0.164785 22.8482 0.029335C24.0134 0.223455 24.8036 1.32793 24.6094 2.49265L23.9598 6.4286H27.8571C29.0424 6.4286 30 7.38581 30 8.57061C30 9.75541 29.0424 10.7126 27.8571 10.7126H23.2433L21.817 19.2807H25.7143C26.8996 19.2807 27.8571 20.2379 27.8571 21.4227C27.8571 22.6075 26.8996 23.5647 25.7143 23.5647H21.1004L20.3304 28.2035C20.1362 29.3682 19.0312 30.1581 17.8661 29.964C16.7009 29.7699 15.9107 28.6654 16.1049 27.5007L16.7612 23.5714H10.3862L9.61607 28.2102C9.42188 29.3749 8.31696 30.1648 7.15179 29.9707C5.98661 29.7765 5.19643 28.6721 5.39062 27.5073L6.04018 23.5647H2.14286C0.957589 23.5647 0 22.6075 0 21.4227C0 20.2379 0.957589 19.2807 2.14286 19.2807H6.7567L8.18303 10.7126H4.28571C3.10045 10.7126 2.14286 9.75541 2.14286 8.57061C2.14286 7.38581 3.10045 6.4286 4.28571 6.4286H8.89955L9.66964 1.7898C9.86384 0.625082 10.9687 -0.164785 12.1339 0.029335H12.1406ZM12.529 10.7126L11.1027 19.2807H17.471L18.8973 10.7126H12.529Z" fill="white"/></svg>