<svg width="61" height="50" viewBox="0 0 61 50" fill="none" xmlns="http://www.w3.org/2000/svg"><path fill-rule="evenodd" clip-rule="evenodd" d="M30.3488 16.6667H33.4434L33.4433 46.6667C33.4433 48.5076 31.951 50 30.11 50C28.2691 50 26.7767 48.5076 26.7767 46.6667L26.7767 21.3048L5.61653 48.7796C5.02387 49.5492 4.10759 50 3.1363 50C0.538128 50 -0.929254 47.0177 0.656084 44.9593L29.6411 7.32437C30.2302 6.45404 30.9044 5.63541 31.6582 4.88155C34.7838 1.75595 39.0231 0 43.4433 0C47.8636 0 52.1029 1.75595 55.2285 4.88155C58.3541 8.00716 60.11 12.2464 60.11 16.6667H53.4434C53.4434 14.0145 52.3898 11.471 50.5144 9.5956C48.6391 7.72023 46.0955 6.66666 43.4433 6.66666C40.7912 6.66666 38.2476 7.72023 36.3723 9.5956C34.4969 11.471 33.4433 14.0145 33.4433 16.6667L30.3488 16.6667ZM53.4433 46.6667C53.4433 48.5076 54.9357 50 56.7767 50C58.6176 50 60.11 48.5076 60.11 46.6667L60.11 16.6667H53.4433V46.6667Z" fill="#050915"/></svg>