<svg width="30" height="14" viewBox="0 0 30 14" fill="none" xmlns="http://www.w3.org/2000/svg"><path d="M2.50012 1.37326C2.50012 0.681819 1.9415 0.123198 1.25006 0.123198C0.55862 0.123198 -2.44181e-08 0.681819 -5.46419e-08 1.37326L-2.18568e-07 5.12344C-3.09068e-07 7.19386 1.67977 8.87363 3.75018 8.87363L25.7312 8.87363L22.8639 11.741C22.3756 12.2293 22.3756 13.0223 22.8639 13.5106C23.3522 13.9989 24.1452 13.9989 24.6335 13.5106L29.6338 8.51033C30.1221 8.02202 30.1221 7.22901 29.6338 6.74071L24.6335 1.74047C24.1452 1.25216 23.3522 1.25216 22.8639 1.74047C22.3756 2.22877 22.3756 3.02178 22.8639 3.51008L25.7312 6.3735L3.75018 6.3735C3.05874 6.3735 2.50012 5.81488 2.50012 5.12344L2.50012 1.37326Z" fill="#2F59CC"/></svg>