<svg width="31" height="30" viewBox="0 0 31 30" fill="none" xmlns="http://www.w3.org/2000/svg"><path d="M3.66732 1.66669C1.82878 1.66669 0.333984 3.16148 0.333984 5.00002V20C0.333984 21.8386 1.82878 23.3334 3.66732 23.3334H12.834L12.2767 25H8.66732C7.74544 25 7.00065 25.7448 7.00065 26.6667C7.00065 27.5886 7.74544 28.3334 8.66732 28.3334H22.0007C22.9225 28.3334 23.6673 27.5886 23.6673 26.6667C23.6673 25.7448 22.9225 25 22.0007 25H18.3913L17.834 23.3334H27.0007C28.8392 23.3334 30.334 21.8386 30.334 20V5.00002C30.334 3.16148 28.8392 1.66669 27.0007 1.66669H3.66732ZM27.0007 5.00002V20H3.66732V5.00002H27.0007Z" fill="white"/></svg>