<svg width="31" height="30" viewBox="0 0 31 30" fill="none" xmlns="http://www.w3.org/2000/svg"><path d="M25.0422 12.1857C25.0422 14.8748 24.1691 17.3588 22.6983 19.3741L30.1167 26.7969C30.8491 27.5292 30.8491 28.7184 30.1167 29.4508C29.3842 30.1831 28.1947 30.1831 27.4622 29.4508L20.0439 22.028C18.0282 23.5044 15.5437 24.3714 12.8541 24.3714C6.12136 24.3714 0.666016 18.9172 0.666016 12.1857C0.666016 5.45428 6.12136 0 12.8541 0C19.5869 0 25.0422 5.45428 25.0422 12.1857ZM12.8541 20.622C13.9622 20.622 15.0594 20.4038 16.0832 19.9798C17.1069 19.5558 18.0371 18.9344 18.8206 18.1511C19.6041 17.3677 20.2257 16.4377 20.6497 15.4141C21.0738 14.3906 21.292 13.2936 21.292 12.1857C21.292 11.0778 21.0738 9.98083 20.6497 8.9573C20.2257 7.93376 19.6041 7.00375 18.8206 6.22038C18.0371 5.437 17.1069 4.81559 16.0832 4.39162C15.0594 3.96766 13.9622 3.74945 12.8541 3.74945C11.746 3.74945 10.6488 3.96766 9.62506 4.39162C8.60133 4.81559 7.67114 5.437 6.88761 6.22038C6.10407 7.00375 5.48254 7.93376 5.0585 8.9573C4.63445 9.98083 4.4162 11.0778 4.4162 12.1857C4.4162 13.2936 4.63445 14.3906 5.0585 15.4141C5.48254 16.4377 6.10407 17.3677 6.88761 18.1511C7.67114 18.9344 8.60133 19.5558 9.62506 19.9798C10.6488 20.4038 11.746 20.622 12.8541 20.622Z" fill="white"/></svg>